<?xml version="1.0" encoding="iso-8859-1"?>
<!-- Generator: Adobe Illustrator 19.0.0, SVG Export Plug-In . SVG Version: 6.00 Build 0)  -->
<svg version="1.1" id="Capa_1" xmlns="http://www.w3.org/2000/svg" xmlns:xlink="http://www.w3.org/1999/xlink" x="0px" y="0px"
	 viewBox="0 0 197.975 197.975" style="enable-background:new 0 0 197.975 197.975;" xml:space="preserve">
<polygon style="fill:#FFFFFF;" points="187.734,194.561 10.241,194.561 10.241,98.988 98.987,34.135 187.734,98.988 "/>
<path style="fill:#602F75;" d="M191.147,197.975H6.827V97.254l92.16-67.347l92.16,67.347V197.975z M13.654,191.148h170.667v-90.426
	l-85.333-62.36l-85.333,62.36V191.148z"/>
<polygon style="fill:#EAEAEA;" points="167.254,34.135 167.254,157.015 30.721,157.015 30.721,3.415 135.85,3.415 "/>
<path style="fill:#602F75;" d="M170.667,160.428H27.307V0.001h109.935l33.425,32.698V160.428z M34.134,153.601h129.707V35.57
	L134.459,6.828H34.134V153.601z"/>
<polygon style="fill:#FFFFFF;" points="187.734,194.561 10.241,194.561 10.241,98.988 98.987,150.188 187.734,98.988 "/>
<path style="fill:#602F75;" d="M187.734,197.975H10.241c-1.884,0-3.413-1.529-3.413-3.413V98.988c0-1.219,0.65-2.347,1.707-2.956
	c1.055-0.609,2.357-0.609,3.412,0l87.042,50.215l87.042-50.215c1.055-0.609,2.357-0.608,3.412,0
	c1.056,0.609,1.707,1.737,1.707,2.956v95.573C191.147,196.447,189.618,197.975,187.734,197.975z M13.654,191.148h170.667v-86.25
	l-83.628,48.247c-1.053,0.608-2.357,0.608-3.41,0l-83.628-48.247V191.148z"/>
<g>
	<circle style="fill:#00E7FF;" cx="10.241" cy="167.255" r="10.24"/>
	<circle style="fill:#00E7FF;" cx="150.187" cy="160.428" r="10.24"/>
	<circle style="fill:#00E7FF;" cx="187.734" cy="68.268" r="10.24"/>
</g>
<polygon style="fill:#FFFFFF;" points="98.987,122.881 10.241,194.561 187.734,194.561 "/>
<path style="fill:#602F75;" d="M187.734,197.975H10.241c-1.447,0-2.737-0.911-3.219-2.275c-0.481-1.364-0.051-2.884,1.073-3.792
	l88.747-71.68c1.253-1.012,3.036-1.012,4.291,0l88.747,71.68c1.125,0.908,1.555,2.429,1.073,3.792
	C190.472,197.063,189.181,197.975,187.734,197.975z M19.899,191.148h158.177l-79.089-63.879L19.899,191.148z"/>
<polygon style="fill:#FFFFFF;" points="136.534,3.415 136.534,34.135 167.254,34.135 "/>
<path style="fill:#602F75;" d="M167.254,37.548h-30.72c-1.884,0-3.413-1.529-3.413-3.413V3.415c0-1.381,0.831-2.625,2.106-3.154
	c1.277-0.529,2.741-0.239,3.721,0.741l30.72,30.72c0.976,0.976,1.268,2.444,0.741,3.719
	C169.879,36.717,168.635,37.548,167.254,37.548z M139.947,30.721h19.067l-19.067-19.065V30.721z"/>
<path style="fill:#EA3457;" d="M126.294,47.788H51.201c-1.884,0-3.413-1.529-3.413-3.413s1.529-3.413,3.413-3.413h75.093
	c1.884,0,3.413,1.529,3.413,3.413S128.178,47.788,126.294,47.788z"/>
<path style="fill:#EA3457;" d="M98.987,64.855H51.201c-1.884,0-3.413-1.529-3.413-3.413c0-1.884,1.529-3.413,3.413-3.413h47.787
	c1.884,0,3.413,1.529,3.413,3.413C102.401,63.327,100.872,64.855,98.987,64.855z"/>
<path style="fill:#EA3457;" d="M146.774,64.855h-37.547c-1.884,0-3.413-1.529-3.413-3.413c0-1.884,1.529-3.413,3.413-3.413h37.547
	c1.884,0,3.413,1.529,3.413,3.413C150.187,63.327,148.658,64.855,146.774,64.855z"/>
<path style="fill:#EA3457;" d="M146.774,81.921H51.201c-1.884,0-3.413-1.529-3.413-3.413c0-1.884,1.529-3.413,3.413-3.413h95.573
	c1.884,0,3.413,1.529,3.413,3.413C150.187,80.392,148.658,81.921,146.774,81.921z"/>
<path style="fill:#EA3457;" d="M146.774,95.575H51.201c-1.884,0-3.413-1.529-3.413-3.413c0-1.884,1.529-3.413,3.413-3.413h95.573
	c1.884,0,3.413,1.529,3.413,3.413C150.187,94.046,148.658,95.575,146.774,95.575z"/>
<path style="fill:#EA3457;" d="M146.774,109.228H51.201c-1.884,0-3.413-1.529-3.413-3.413c0-1.884,1.529-3.413,3.413-3.413h95.573
	c1.884,0,3.413,1.529,3.413,3.413C150.187,107.699,148.658,109.228,146.774,109.228z"/>
<g>
</g>
<g>
</g>
<g>
</g>
<g>
</g>
<g>
</g>
<g>
</g>
<g>
</g>
<g>
</g>
<g>
</g>
<g>
</g>
<g>
</g>
<g>
</g>
<g>
</g>
<g>
</g>
<g>
</g>
</svg>
