<svg height="416pt" viewBox="-18 0 416 416.42667" width="416pt" xmlns="http://www.w3.org/2000/svg"><path d="m39.796875 306.773438c-9.769531-21.75-15.203125-45.867188-15.203125-71.253907 0-96.140625 77.9375-174.078125 174.078125-174.078125 96.144531 0 174.082031 77.9375 174.082031 174.078125s-77.9375 174.082031-174.082031 174.082031c-54.875 0-103.824219-25.394531-135.730469-65.070312" fill="#00e7ff"/><path d="m198.671875 416.425781c-55.085937 0-106.492187-24.644531-141.050781-67.617187-2.359375-2.9375-1.894532-7.234375 1.039062-9.597656 2.933594-2.371094 7.238282-1.898438 9.601563 1.042968 31.949219 39.730469 79.484375 62.519532 130.410156 62.519532 92.226563 0 167.253906-75.03125 167.253906-167.253907 0-92.222656-75.027343-167.253906-167.253906-167.253906s-167.253906 75.03125-167.253906 167.253906c0 23.851563 4.914062 46.882813 14.601562 68.457031 1.546875 3.441407.007813 7.480469-3.433593 9.023438-3.445313 1.546875-7.480469.007812-9.019532-3.429688-10.488281-23.347656-15.800781-48.261718-15.800781-74.050781 0-99.753906 81.15625-180.90625 180.90625-180.90625 99.753906 0 180.90625 81.152344 180.90625 180.90625 0 99.75-81.152344 180.90625-180.90625 180.90625zm0 0" fill="#602f75"/><path d="m350.496094 150.375-36.386719 16.535156c-13.101563 5.957032-19.351563 21.046875-14.300781 34.523438l8.101562 21.601562c2.203125 5.867188 2.320313 12.316406.335938 18.261719l-5.378906 16.136719c-3.203126 9.617187-11.460938 16.675781-21.460938 18.339844-13.984375 2.332031-23.875 14.957031-22.785156 29.09375l4.128906 53.679687c.5 6.511719 3.3125 12.632813 7.933594 17.25l12.121094 12.125c53.625-29.667969 89.945312-86.785156 89.945312-152.402344.003906-30.9375-8.105469-59.96875-22.253906-85.144531zm0 0" fill="#fff"/><path d="m282.804688 394.75c-1.765626 0-3.515626-.6875-4.828126-2l-12.117187-12.125c-5.769531-5.765625-9.289063-13.421875-9.914063-21.554688l-4.136718-53.679687c-1.367188-17.792969 10.875-33.417969 28.476562-36.347656 7.527344-1.253907 13.699219-6.53125 16.113282-13.765625l5.367187-16.136719c1.484375-4.449219 1.398437-9.316406-.25-13.710937l-8.097656-21.597657c-6.289063-16.773437 1.558593-35.722656 17.867187-43.128906l36.378906-16.539063c3.226563-1.484374 7.039063-.230468 8.78125 2.867188 15.132813 26.925781 23.132813 57.527344 23.132813 88.492188 0 65.796874-35.8125 126.484374-93.46875 158.375-1.035156.570312-2.167969.851562-3.304687.851562zm64.703124-235.519531-30.566406 13.898437c-9.800781 4.453125-14.515625 15.832032-10.734375 25.910156l8.097657 21.597657c2.742187 7.316406 2.886718 15.421875.414062 22.824219l-5.367188 16.132812c-4.019531 12.050781-14.300781 20.832031-26.828124 22.917969-10.5625 1.757812-17.917969 11.144531-17.097657 21.832031l4.132813 53.679688c.371094 4.886718 2.484375 9.488281 5.953125 12.953124l8.425781 8.425782c50.699219-30.09375 81.988281-84.757813 81.988281-143.882813 0-26.53125-6.351562-52.773437-18.417969-76.289062zm0 0" fill="#602f75"/><path d="m119.960938 174.390625c-5.976563-10.757813-21.363282-11.015625-27.695313-.460937-3.6875 6.144531-11.007813 9.085937-17.921875 7.199218l-37.328125-10.179687c-7.984375 19.972656-12.425781 41.746093-12.425781 64.570312 0 25.378907 5.476562 49.464844 15.242187 71.207031 2-1.207031 3.785157-2.867187 5.15625-4.984374l20.242188-31.285157c4.152343-6.417969 12.265625-8.996093 19.367187-6.160156l8.832032 3.535156c7.480468 2.992188 16.011718-.042969 19.921874-7.082031l22.976563-41.359375c2.683594-4.832031 2.683594-10.703125 0-15.535156zm0 0" fill="#ffe600"/><path d="m39.832031 313.558594c-.6875 0-1.375-.105469-2.039062-.3125-1.859375-.582032-3.386719-1.9375-4.1875-3.71875-10.511719-23.398438-15.839844-48.296875-15.839844-74.007813 0-23.089843 4.339844-45.667969 12.90625-67.101562 1.289063-3.222657 4.804687-4.972657 8.132813-4.054688l37.335937 10.183594c3.945313 1.082031 8.171875-.617187 10.273437-4.128906 4.246094-7.070313 11.71875-11.191407 19.945313-11.074219 8.25.136719 15.5625 4.523438 19.570313 11.734375l16.371093 29.46875c3.855469 6.941406 3.855469 15.222656 0 22.160156l-22.980469 41.363281c-5.558593 10.023438-17.785156 14.363282-28.417968 10.101563l-8.832032-3.53125c-4.042968-1.617187-8.726562-.136719-11.101562 3.53125l-20.238281 31.277344c-1.902344 2.929687-4.378907 5.324219-7.367188 7.128906-1.078125.644531-2.304687.980469-3.53125.980469zm1.367188-134.394532c-6.496094 18.109376-9.78125 37.039063-9.78125 56.355469 0 20.128907 3.535156 39.71875 10.515625 58.382813l17.566406-27.152344c5.914062-9.132812 17.527344-12.824219 27.632812-8.789062l8.832032 3.53125c4.28125 1.71875 9.195312-.027344 11.421875-4.050782l22.980469-41.363281c1.542968-2.785156 1.542968-6.117187 0-8.902344l-16.375-29.464843c-1.613282-2.898438-4.546876-4.660157-7.859376-4.71875-3.355468.011718-6.28125 1.5625-8.011718 4.449218-5.242188 8.722656-15.75 12.949219-25.566406 10.277344zm0 0" fill="#602f75"/><path d="m284.480469 101.519531 14.757812-8.046875c-28.40625-20.148437-63.089843-32.03125-100.566406-32.03125l-2.777344 22.234375c-.40625 3.238281-2.109375 6.179688-4.722656 8.136719l-11.039063 8.277344c-6.214843 4.664062-6.453124 13.910156-.480468 18.882812l28.328125 23.605469c.621093.519531 1.1875 1.097656 1.691406 1.730469l18.6875 23.359375c4.28125 5.355469 12.167969 6.054687 17.332031 1.539062l35.453125-31.027343c5.246094-4.585938 5.511719-12.652344.585938-17.574219-5.683594-5.683594-4.308594-15.234375 2.75-19.085938zm0 0" fill="#fff"/><path d="m237.804688 179.015625c-.574219 0-1.140626-.027344-1.71875-.074219-5.175782-.464844-9.808594-2.953125-13.058594-7.007812l-18.6875-23.359375c-.222656-.28125-.472656-.53125-.75-.761719l-28.3125-23.59375c-4.457032-3.714844-6.933594-9.175781-6.785156-14.976562.152343-5.804688 2.898437-11.128907 7.546874-14.613282l11.039063-8.277344c1.121094-.839843 1.867187-2.125 2.039063-3.523437l2.78125-22.230469c.425781-3.417968 3.332031-5.980468 6.773437-5.980468 37.664063 0 73.804687 11.507812 104.511719 33.285156 1.925781 1.363281 3.007812 3.621094 2.867187 5.972656s-1.480469 4.464844-3.546875 5.589844l-14.757812 8.050781c-1.453125.796875-2.425782 2.195313-2.660156 3.835937-.242188 1.640626.300781 3.257813 1.472656 4.433594 3.671875 3.671875 5.6875 8.757813 5.511718 13.960938-.167968 5.199218-2.515624 10.148437-6.433593 13.574218l-35.453125 31.027344c-3.476563 3.039063-7.824219 4.667969-12.378906 4.667969zm-33.117188-110.644531-2.023438 16.148437c-.632812 5.054688-3.324218 9.703125-7.398437 12.753907l-11.042969 8.28125c-1.75 1.316406-2.058594 3.089843-2.078125 4.03125-.027343.945312.183594 2.734374 1.875 4.140624l28.332031 23.609376c.980469.824218 1.859376 1.726562 2.65625 2.710937l18.683594 23.359375c.894532 1.117188 2.179688 1.808594 3.605469 1.9375 1.421875.132812 2.8125-.324219 3.902344-1.273438l35.453125-31.027343c1.09375-.960938 1.726562-2.296875 1.773437-3.753907.050781-1.453124-.488281-2.824218-1.523437-3.851562-4.246094-4.246094-6.1875-10.089844-5.332032-16.03125.851563-5.941406 4.367188-11 9.632813-13.878906h.007813l4.800781-2.621094c-24.574219-15.109375-52.378907-23.511719-81.324219-24.535156zm0 0" fill="#602f75"/><path d="m82.621094 6.828125c-41.742188 0-75.582032 33.835937-75.582032 75.578125 0 41.746094 75.582032 136.046875 75.582032 136.046875s75.582031-94.304687 75.582031-136.046875c0-41.738281-33.839844-75.578125-75.582031-75.578125zm0 0" fill="#ea3457"/><path d="m82.621094 225.28125c-2.074219 0-4.035156-.941406-5.328125-2.558594-3.148438-3.925781-77.078125-96.675781-77.078125-140.316406-.003906-45.441406 36.964844-82.40625 82.40625-82.40625 45.4375 0 82.40625 36.964844 82.40625 82.40625 0 43.640625-73.933594 136.390625-77.082032 140.316406-1.292968 1.617188-3.253906 2.558594-5.324218 2.558594zm0-211.628906c-37.914063 0-68.753906 30.84375-68.753906 68.753906 0 29.78125 45.527343 94.910156 68.753906 124.996094 23.226562-30.09375 68.75-95.230469 68.75-124.996094 0-37.910156-30.839844-68.753906-68.75-68.753906zm0 0" fill="#602f75"/><path d="m117.890625 82.40625c0 19.480469-15.789063 35.273438-35.269531 35.273438-19.480469 0-35.273438-15.792969-35.273438-35.273438 0-19.476562 15.792969-35.269531 35.273438-35.269531 19.480468 0 35.269531 15.792969 35.269531 35.269531zm0 0" fill="#fff"/><path d="m82.621094 124.507812c-23.214844 0-42.101563-18.886718-42.101563-42.101562s18.886719-42.097656 42.101563-42.097656c23.210937 0 42.097656 18.882812 42.097656 42.097656s-18.886719 42.101562-42.097656 42.101562zm0-70.542968c-15.6875 0-28.449219 12.757812-28.449219 28.441406 0 15.6875 12.761719 28.445312 28.449219 28.445312 15.683594 0 28.445312-12.757812 28.445312-28.445312 0-15.683594-12.761718-28.441406-28.445312-28.441406zm0 0" fill="#602f75"/></svg>