<?xml version="1.0" encoding="iso-8859-1"?>
<!-- Generator: Adobe Illustrator 19.0.0, SVG Export Plug-In . SVG Version: 6.00 Build 0)  -->
<svg version="1.1" id="Capa_1" xmlns="http://www.w3.org/2000/svg" xmlns:xlink="http://www.w3.org/1999/xlink" x="0px" y="0px"
	 viewBox="0 0 423.253 423.253" style="enable-background:new 0 0 423.253 423.253;" xml:space="preserve">
<polyline style="fill:#FFFFFF;" points="416.427,332.233 416.427,365.227 6.827,365.227 6.827,119.467 416.427,119.467 
	416.427,273.633 "/>
<path style="fill:#602F75;" d="M416.427,372.053H6.827c-3.768,0-6.827-3.055-6.827-6.827v-245.76c0-3.772,3.058-6.827,6.827-6.827
	h409.6c3.768,0,6.827,3.055,6.827,6.827v154.167c0,3.772-3.058,6.827-6.827,6.827c-3.768,0-6.827-3.055-6.827-6.827v-147.34H13.653
	V358.4H409.6v-26.167c0-3.772,3.058-6.827,6.827-6.827c3.768,0,6.827,3.055,6.827,6.827v32.993
	C423.253,368.998,420.195,372.053,416.427,372.053z"/>
<rect x="6.827" y="78.507" style="fill:#EAEAEA;" width="409.6" height="40.96"/>
<path style="fill:#602F75;" d="M416.427,126.293H6.827c-3.768,0-6.827-3.055-6.827-6.827v-40.96c0-3.772,3.058-6.827,6.827-6.827
	h409.6c3.768,0,6.827,3.055,6.827,6.827v40.96C423.253,123.238,420.195,126.293,416.427,126.293z M13.653,112.64H409.6V85.333
	H13.653V112.64z"/>
<circle style="fill:#EA3457;" cx="47.787" cy="78.507" r="20.48"/>
<path style="fill:#602F75;" d="M47.787,105.813c-15.056,0-27.307-12.247-27.307-27.307S32.73,51.2,47.787,51.2
	s27.307,12.247,27.307,27.307S62.843,105.813,47.787,105.813z M47.787,64.853c-7.53,0-13.653,6.127-13.653,13.653
	S40.257,92.16,47.787,92.16S61.44,86.033,61.44,78.507S55.316,64.853,47.787,64.853z"/>
<circle style="fill:#FFE600;" cx="116.053" cy="78.507" r="20.48"/>
<path style="fill:#602F75;" d="M116.053,105.813c-15.056,0-27.307-12.247-27.307-27.307S100.997,51.2,116.053,51.2
	s27.307,12.247,27.307,27.307S131.11,105.813,116.053,105.813z M116.053,64.853c-7.53,0-13.653,6.127-13.653,13.653
	s6.124,13.653,13.653,13.653s13.653-6.127,13.653-13.653S123.583,64.853,116.053,64.853z"/>
<circle style="fill:#00E7FF;" cx="184.32" cy="78.507" r="20.48"/>
<path style="fill:#602F75;" d="M184.32,105.813c-15.056,0-27.307-12.247-27.307-27.307S169.264,51.2,184.32,51.2
	c15.056,0,27.307,12.247,27.307,27.307S199.376,105.813,184.32,105.813z M184.32,64.853c-7.53,0-13.653,6.127-13.653,13.653
	S176.79,92.16,184.32,92.16s13.653-6.127,13.653-13.653S191.85,64.853,184.32,64.853z"/>
<g>
	<path style="fill:#EA3457;" d="M184.371,264.352l-57.661-25.32v-5.881l57.661-28.74v8.94l-46.92,22.258l46.92,19.681V264.352z"/>
	<path style="fill:#EA3457;" d="M234.592,191.153l-32.7,87.719h-9.96l32.7-87.719H234.592z"/>
	<path style="fill:#EA3457;" d="M242.091,255.293l46.981-19.558l-46.981-22.381v-8.94l57.661,28.74v5.881l-57.661,25.32V255.293z"/>
</g>
<g>
</g>
<g>
</g>
<g>
</g>
<g>
</g>
<g>
</g>
<g>
</g>
<g>
</g>
<g>
</g>
<g>
</g>
<g>
</g>
<g>
</g>
<g>
</g>
<g>
</g>
<g>
</g>
<g>
</g>
</svg>
