<?xml version="1.0" encoding="iso-8859-1"?>
<!-- Generator: Adobe Illustrator 19.0.0, SVG Export Plug-In . SVG Version: 6.00 Build 0)  -->
<svg version="1.1" id="Capa_1" xmlns="http://www.w3.org/2000/svg" xmlns:xlink="http://www.w3.org/1999/xlink" x="0px" y="0px"
	 viewBox="0 0 409.6 409.6" style="enable-background:new 0 0 409.6 409.6;" xml:space="preserve">
<rect x="184.32" y="316.759" style="fill:#EAEAEA;" width="40.96" height="61.44"/>
<path style="fill:#602F75;" d="M225.28,385.022h-40.96c-3.768,0-6.827-3.058-6.827-6.827v-61.44c0-3.768,3.058-6.827,6.827-6.827
	h40.96c3.768,0,6.827,3.058,6.827,6.827v61.44C232.107,381.967,229.048,385.022,225.28,385.022z M191.147,371.369h27.307v-47.787
	h-27.307V371.369z"/>
<path style="fill:#FFFFFF;" d="M186.597,84.649h196.489c10.875,0,19.688,8.813,19.688,19.688v206.384
	c0,10.875-8.813,19.688-19.688,19.688H26.515c-10.871,0-19.688-8.813-19.688-19.688V104.337c0-10.871,8.813-19.688,19.688-19.688
	h75.315"/>
<path style="fill:#602F75;" d="M383.085,337.236H26.515C11.895,337.236,0,325.344,0,310.721V104.337
	c0-14.619,11.892-26.515,26.515-26.515h75.315c3.768,0,6.827,3.058,6.827,6.827s-3.058,6.827-6.827,6.827H26.515
	c-7.089,0-12.861,5.769-12.861,12.861v206.387c0,7.09,5.769,12.861,12.861,12.861h356.574c7.09,0,12.861-5.769,12.861-12.861
	V104.337c0-7.089-5.769-12.861-12.861-12.861H186.597c-3.768,0-6.827-3.058-6.827-6.827s3.058-6.827,6.827-6.827h196.489
	c14.619,0,26.515,11.892,26.515,26.515v206.387C409.6,325.344,397.708,337.236,383.085,337.236z"/>
<rect x="150.187" y="378.199" style="fill:#EAEAEA;" width="109.227" height="20.48"/>
<path style="fill:#602F75;" d="M259.413,405.502H150.187c-3.768,0-6.827-3.058-6.827-6.827v-20.48c0-3.768,3.058-6.827,6.827-6.827
	h109.227c3.768,0,6.827,3.058,6.827,6.827v20.48C266.24,402.447,263.182,405.502,259.413,405.502z M157.013,391.849h95.573v-6.827
	h-95.573V391.849z"/>
<rect x="34.133" y="125.609" style="fill:#EA3457;" width="116.053" height="47.787"/>
<path style="fill:#602F75;" d="M150.187,180.222H34.133c-3.768,0-6.827-3.058-6.827-6.827v-47.787c0-3.768,3.058-6.827,6.827-6.827
	h116.053c3.768,0,6.827,3.058,6.827,6.827v47.787C157.013,177.167,153.955,180.222,150.187,180.222z M40.96,166.569h102.4v-34.133
	H40.96V166.569z"/>
<rect x="252.609" y="159.737" transform="matrix(-0.9534 -0.3018 0.3018 -0.9534 551.3713 452.4485)" style="fill:#00E7FF;" width="116.057" height="47.788"/>
<path style="fill:#FFFFFF;" d="M33.331,56.527l180.023,180.023l37.775-37.775L71.107,18.751c-10.431-10.431-27.344-10.431-37.775,0
	l0,0C22.9,29.182,22.9,46.095,33.331,56.527z"/>
<path style="fill:#602F75;" d="M213.357,243.376c-1.748,0-3.492-0.666-4.826-2L28.505,61.353l0,0
	c-13.076-13.076-13.076-34.348,0-47.428c6.332-6.335,14.756-9.827,23.716-9.827s17.381,3.488,23.712,9.827l180.023,180.023
	c2.666,2.666,2.666,6.987,0,9.653l-37.772,37.775C216.849,242.71,215.105,243.376,213.357,243.376z M38.158,51.7l175.2,175.196
	l28.119-28.119L66.28,23.581c-7.516-7.516-20.613-7.509-28.122,0C30.403,31.333,30.403,43.948,38.158,51.7L38.158,51.7z"/>
<polygon style="fill:#EA3457;" points="266.24,251.66 213.354,236.553 251.129,198.777 "/>
<g>
	<path style="fill:#602F75;" d="M266.24,258.487c-0.628,0-1.256-0.085-1.877-0.263l-52.883-15.111
		c-2.324-0.662-4.127-2.509-4.734-4.85c-0.608-2.345,0.072-4.83,1.782-6.54l37.772-37.772c1.71-1.707,4.195-2.389,6.54-1.782
		c2.342,0.608,4.188,2.41,4.85,4.734l15.111,52.883c0.683,2.386,0.017,4.949-1.737,6.704
		C269.769,257.787,268.022,258.487,266.24,258.487z M226.386,233.173l29.914,8.547l-8.547-29.914L226.386,233.173z"/>
	<path style="fill:#602F75;" d="M213.357,213.158c-1.748,0-3.492-0.666-4.826-2L47.394,50.021c-2.666-2.666-2.666-6.987,0-9.653
		c2.666-2.666,6.987-2.666,9.653,0l161.137,161.137c2.666,2.666,2.666,6.987,0,9.653
		C216.849,212.489,215.105,213.158,213.357,213.158z"/>
</g>
<g>
	<circle style="fill:#FFE600;" cx="129.707" cy="248.492" r="40.96"/>
	<path style="fill:#FFE600;" d="M129.707,296.276c-26.351,0-47.787-21.436-47.787-47.787s21.436-47.787,47.787-47.787
		s47.787,21.436,47.787,47.787S156.058,296.276,129.707,296.276z M129.707,214.356c-18.821,0-34.133,15.312-34.133,34.133
		s15.312,34.133,34.133,34.133s34.133-15.312,34.133-34.133S148.528,214.356,129.707,214.356z"/>
</g>
<g>
</g>
<g>
</g>
<g>
</g>
<g>
</g>
<g>
</g>
<g>
</g>
<g>
</g>
<g>
</g>
<g>
</g>
<g>
</g>
<g>
</g>
<g>
</g>
<g>
</g>
<g>
</g>
<g>
</g>
</svg>
