<?xml version="1.0" encoding="iso-8859-1"?>
<!-- Generator: Adobe Illustrator 19.0.0, SVG Export Plug-In . SVG Version: 6.00 Build 0)  -->
<svg version="1.1" id="Capa_1" xmlns="http://www.w3.org/2000/svg" xmlns:xlink="http://www.w3.org/1999/xlink" x="0px" y="0px"
	 viewBox="0 0 423.253 423.253" style="enable-background:new 0 0 423.253 423.253;" xml:space="preserve">
<rect x="184.32" y="252.587" style="fill:#EAEAEA;" width="40.96" height="61.44"/>
<path style="fill:#602F75;" d="M225.28,320.853h-40.96c-3.768,0-6.827-3.058-6.827-6.827v-61.44c0-3.768,3.058-6.827,6.827-6.827
	h40.96c3.772,0,6.827,3.058,6.827,6.827v61.44C232.107,317.795,229.052,320.853,225.28,320.853z M191.147,307.2h27.307v-47.787
	h-27.307V307.2z"/>
<path style="fill:#FFFFFF;" d="M402.773,226.99v19.565c0,10.875-8.813,19.688-19.688,19.688H26.515
	c-10.875-0.003-19.688-8.817-19.688-19.691V40.168c0-10.875,8.813-19.688,19.688-19.688h356.57c10.875,0,19.688,8.813,19.688,19.688
	V153.6"/>
<path style="fill:#602F75;" d="M383.085,273.067H26.515C11.892,273.067,0,261.175,0,246.552V40.168
	c0-14.623,11.892-26.515,26.515-26.515h356.574c14.619,0,26.515,11.892,26.515,26.515V153.6c0,3.768-3.055,6.827-6.827,6.827
	s-6.827-3.058-6.827-6.827V40.168c0-7.089-5.765-12.861-12.861-12.861H26.515c-7.093,0-12.861,5.769-12.861,12.861v206.387
	c0,7.089,5.769,12.858,12.861,12.858h356.574c7.093,0,12.861-5.769,12.861-12.861V226.99c0-3.768,3.055-6.827,6.827-6.827
	s6.827,3.058,6.827,6.827v19.562C409.6,261.175,397.708,273.067,383.085,273.067z"/>
<rect x="150.187" y="314.027" style="fill:#EAEAEA;" width="109.227" height="20.48"/>
<path style="fill:#602F75;" d="M259.413,341.333H150.187c-3.768,0-6.827-3.058-6.827-6.827v-20.48c0-3.768,3.058-6.827,6.827-6.827
	h109.227c3.772,0,6.827,3.058,6.827,6.827v20.48C266.24,338.275,263.185,341.333,259.413,341.333z M157.013,327.68h95.573v-6.827
	h-95.573V327.68z"/>
<rect x="27.307" y="47.787" style="fill:#00E7FF;" width="354.987" height="54.613"/>
<path style="fill:#602F75;" d="M382.293,109.227H27.307c-3.768,0-6.827-3.058-6.827-6.827V47.787c0-3.768,3.058-6.827,6.827-6.827
	h354.987c3.772,0,6.827,3.058,6.827,6.827V102.4C389.12,106.168,386.065,109.227,382.293,109.227z M34.133,95.573h341.333v-40.96
	H34.133V95.573z"/>
<g>
	<rect x="34.133" y="122.88" style="fill:#FFE600;" width="102.4" height="116.053"/>
	<rect x="279.893" y="122.88" style="fill:#FFE600;" width="102.4" height="116.053"/>
	<rect x="157.013" y="122.88" style="fill:#FFE600;" width="102.4" height="116.053"/>
</g>
<rect x="307.2" y="218.453" style="fill:#FFFFFF;" width="109.227" height="163.84"/>
<path style="fill:#602F75;" d="M416.427,389.12H307.2c-3.772,0-6.827-3.058-6.827-6.827v-163.84c0-3.768,3.055-6.827,6.827-6.827
	h109.227c3.772,0,6.827,3.058,6.827,6.827v163.84C423.253,386.062,420.198,389.12,416.427,389.12z M314.027,375.467H409.6V225.28
	h-95.573V375.467z"/>
<circle style="fill:#FFFFFF;" cx="85.333" cy="160.427" r="17.067"/>
<path style="fill:#602F75;" d="M85.333,184.32c-13.172,0-23.893-10.721-23.893-23.893s10.721-23.893,23.893-23.893
	s23.893,10.721,23.893,23.893S98.505,184.32,85.333,184.32z M85.333,150.187c-5.646,0-10.24,4.594-10.24,10.24
	c0,5.646,4.594,10.24,10.24,10.24s10.24-4.594,10.24-10.24C95.573,154.781,90.979,150.187,85.333,150.187z"/>
<rect x="327.68" y="218.453" style="fill:#FFFFFF;" width="68.267" height="47.787"/>
<path style="fill:#602F75;" d="M395.947,273.067H327.68c-3.772,0-6.827-3.058-6.827-6.827v-47.787c0-3.768,3.055-6.827,6.827-6.827
	h68.267c3.772,0,6.827,3.058,6.827,6.827v47.787C402.773,270.008,399.718,273.067,395.947,273.067z M334.507,259.413h54.613V225.28
	h-54.613V259.413z"/>
<circle style="fill:#FFFFFF;" cx="331.093" cy="160.427" r="17.067"/>
<path style="fill:#602F75;" d="M331.093,184.32c-13.172,0-23.893-10.721-23.893-23.893s10.721-23.893,23.893-23.893
	s23.893,10.721,23.893,23.893S344.265,184.32,331.093,184.32z M331.093,150.187c-5.646,0-10.24,4.594-10.24,10.24
	c0,5.646,4.594,10.24,10.24,10.24c5.646,0,10.24-4.594,10.24-10.24C341.333,154.781,336.739,150.187,331.093,150.187z"/>
<rect x="327.68" y="286.72" style="fill:#FFE600;" width="68.267" height="95.573"/>
<path style="fill:#602F75;" d="M395.947,389.12H327.68c-3.772,0-6.827-3.058-6.827-6.827V286.72c0-3.768,3.055-6.827,6.827-6.827
	h68.267c3.772,0,6.827,3.058,6.827,6.827v95.573C402.773,386.062,399.718,389.12,395.947,389.12z M334.507,375.467h54.613v-81.92
	h-54.613V375.467z"/>
<circle style="fill:#FFFFFF;" cx="208.213" cy="160.427" r="17.067"/>
<path style="fill:#602F75;" d="M208.213,184.32c-13.172,0-23.893-10.721-23.893-23.893s10.721-23.893,23.893-23.893
	s23.893,10.721,23.893,23.893S221.385,184.32,208.213,184.32z M208.213,150.187c-5.646,0-10.24,4.594-10.24,10.24
	c0,5.646,4.594,10.24,10.24,10.24c5.646,0,10.24-4.594,10.24-10.24C218.453,154.781,213.859,150.187,208.213,150.187z"/>
<g>
	<circle style="fill:#EA3457;" cx="361.813" cy="327.68" r="13.653"/>
	<rect x="307.2" y="197.973" style="fill:#EA3457;" width="109.227" height="20.48"/>
</g>
<path style="fill:#602F75;" d="M416.427,225.28H307.2c-3.772,0-6.827-3.058-6.827-6.827v-20.48c0-3.768,3.055-6.827,6.827-6.827
	h109.227c3.772,0,6.827,3.058,6.827,6.827v20.48C423.253,222.222,420.198,225.28,416.427,225.28z M314.027,211.627H409.6V204.8
	h-95.573V211.627z"/>
<rect x="307.2" y="382.293" style="fill:#EA3457;" width="109.227" height="20.48"/>
<path style="fill:#602F75;" d="M416.427,409.6H307.2c-3.772,0-6.827-3.058-6.827-6.827v-20.48c0-3.768,3.055-6.827,6.827-6.827
	h109.227c3.772,0,6.827,3.058,6.827,6.827v20.48C423.253,406.542,420.198,409.6,416.427,409.6z M314.027,395.947H409.6v-6.827
	h-95.573V395.947z"/>
<g>
</g>
<g>
</g>
<g>
</g>
<g>
</g>
<g>
</g>
<g>
</g>
<g>
</g>
<g>
</g>
<g>
</g>
<g>
</g>
<g>
</g>
<g>
</g>
<g>
</g>
<g>
</g>
<g>
</g>
</svg>
