<?xml version="1.0" encoding="UTF-8"?>
<svg xmlns="http://www.w3.org/2000/svg" xmlns:xlink="http://www.w3.org/1999/xlink" xmlns:svgjs="http://svgjs.com/svgjs" version="1.1" width="512" height="512" x="0" y="0" viewBox="0 0 511.999 511.999" style="enable-background:new 0 0 512 512" xml:space="preserve" class="">
  <g>
<circle xmlns="http://www.w3.org/2000/svg" style="" cx="255.999" cy="255.999" r="255.999" fill="#ffd15c" data-original="#ffd15c" class=""/>
<g xmlns="http://www.w3.org/2000/svg">
	<path style="" d="M40.752,17.253L73.048,1.788c8.188-3.921,18.014-1.209,23.032,6.356l2.867,4.323l-0.011,0.011   l73.317,110.619c4.169,6.29,4.025,14.5-0.363,20.64l-25.336,35.457l-0.921-0.661L66.578,114.76L40.752,17.253z" fill="#ef4152" data-original="#ef4152"/>
	<path style="" d="M467.261,400.622c-9.916,14.472-21.285,27.867-33.896,39.967   c-6.729,6.478-13.803,12.57-21.201,18.275l-52.203-66.006l-0.669-0.951l35.464-25.318c6.134-4.378,14.346-4.524,20.637-0.355   L467.261,400.622z" fill="#ef4152" data-original="#ef4152"/>
</g>
<path xmlns="http://www.w3.org/2000/svg" style="" d="M433.364,440.59c-6.729,6.478-13.803,12.57-21.201,18.275c-20.835,16.06-44.22,28.996-69.433,38.066  C220.613,418.323,98.569,293.155,26.419,171.236c-0.763-1.285-1.515-2.55-2.257-3.835l-5.047-8.641l-15.882-27.22  c-3.741-6.405-4.263-14.2-1.4-21.055L40.755,17.25l36.247,55.735l68.629,105.545l0.92,0.669l-12.957,18.139  c-5.611,7.858-5.935,18.307-0.836,26.488c20.71,33.165,49.601,68.284,81.606,100.289c32.005,32.016,67.124,60.907,100.289,81.596  c8.182,5.11,18.63,4.786,26.478-0.825l18.16-12.978l0.669,0.951L433.364,440.59z" fill="#ff525d" data-original="#ff525d" class=""/>
<path xmlns="http://www.w3.org/2000/svg" style="" d="M50.8,171.236c-0.763-1.285-1.515-2.55-2.257-3.835l-5.047-8.641l-15.882-27.22  c-3.741-6.405-4.263-14.2-1.4-21.055l29.391-70.404L40.755,17.25L1.833,110.486c-2.863,6.855-2.341,14.649,1.4,21.055l15.882,27.22  l5.047,8.641c0.742,1.285,1.494,2.55,2.257,3.835c72.15,121.918,194.194,247.086,316.311,325.694  c5.136-1.847,10.191-3.864,15.17-6.026C238.887,412.022,121.136,290.089,50.8,171.236z" fill="#ef4152" data-original="#ef4152"/>
<path xmlns="http://www.w3.org/2000/svg" style="" d="M466.167,18.332H270.204c-12.103,0-21.915,9.812-21.915,21.915v131.705  c0,12.103,9.812,21.915,21.915,21.915h29.806l-17.24,57.989l79.93-57.989h103.467c12.103,0,21.915-9.812,21.915-21.915V40.245  C488.081,28.143,478.27,18.332,466.167,18.332z" fill="#f9eed7" data-original="#f9eed7" class=""/>
<g xmlns="http://www.w3.org/2000/svg">
	<circle style="" cx="325.213" cy="130.978" r="14.301" fill="#602f75" data-original="#5c5e70" class=""/>
	<circle style="" cx="411.156" cy="130.978" r="14.301" fill="#602f75" data-original="#5c5e70" class=""/>
	<circle style="" cx="368.19" cy="130.978" r="14.301" fill="#602f75" data-original="#5c5e70" class=""/>
</g>















</g>
</svg>
