<svg id="Layer_1" enable-background="new 0 0 512 512" height="512" viewBox="0 0 512 512" width="512" xmlns="http://www.w3.org/2000/svg"><g><path d="m353.952 511.886c-1.617-.204-39.994-5.206-74.51-24.25-4.274-2.358-7.133-6.648-7.665-11.5-.531-4.852 1.331-9.659 4.993-12.887 17.141-15.108 28.806-31.001 33.733-45.962 1.366-4.148 4.473-7.495 8.508-9.166 4.036-1.67 8.598-1.5 12.497.467 14.051 7.09 33.542 10.084 56.353 8.647 4.862-.299 9.586 1.776 12.641 5.584 3.054 3.807 4.065 8.862 2.71 13.55-10.94 37.866-34.537 68.543-35.536 69.83-5.45 7.023-13.494 5.716-13.724 5.687z" fill="#8130ab"/><path d="m144.326 506.201c-1-1.287-24.596-31.964-35.536-69.831-1.354-4.688-.343-9.743 2.71-13.55 3.054-3.807 7.77-5.883 12.641-5.584 22.814 1.433 42.301-1.557 56.353-8.647 3.899-1.967 8.462-2.138 12.497-.467s7.142 5.018 8.508 9.166c4.928 14.961 16.593 30.854 33.734 45.962 3.662 3.227 5.524 8.035 4.992 12.887-.531 4.852-3.391 9.142-7.664 11.5-34.516 19.045-72.894 24.047-74.511 24.25-.232.028-8.276 1.334-13.724-5.686z" fill="#b25fc5"/><path d="m75.64 403.21c-37.871-10.938-68.547-34.53-69.835-35.529-4.188-3.249-6.35-8.468-5.687-13.727.204-1.617 5.211-39.993 24.254-74.512 2.357-4.274 6.647-7.133 11.5-7.665 4.853-.534 9.659 1.331 12.887 4.992 15.111 17.144 31.004 28.808 45.958 33.733 4.148 1.366 7.495 4.472 9.166 8.506s1.501 8.597-.465 12.497c-7.092 14.059-10.081 33.545-8.645 56.351.307 4.871-1.775 9.587-5.582 12.642-.682.546-6.041 4.883-13.551 2.712z" fill="#b25fc5"/><path d="m422.81 400.498c-3.807-3.055-5.889-7.771-5.582-12.642 1.438-22.806-1.552-42.292-8.644-56.351-1.967-3.899-2.137-8.461-.466-12.496 1.672-4.035 5.019-7.141 9.166-8.506 14.957-4.926 30.849-16.591 45.957-33.732 3.227-3.662 8.027-5.526 12.887-4.993 4.853.532 9.143 3.391 11.5 7.665 19.044 34.519 24.051 72.896 24.254 74.513.663 5.259-1.498 10.477-5.687 13.727-1.287.999-31.963 24.59-69.835 35.529-7.51 2.167-12.865-2.164-13.55-2.714z" fill="#8130ab"/><path d="m35.872 240.223c-4.852-.531-9.142-3.39-11.5-7.664-19.043-34.511-24.05-72.889-24.254-74.506-.663-5.258 1.498-10.476 5.685-13.725 1.288-1 31.965-24.6 69.837-35.538 4.689-1.353 9.744-.343 13.551 2.712s5.889 7.771 5.582 12.642c-1.436 22.806 1.553 42.292 8.645 56.351 1.967 3.899 2.137 8.462.465 12.497s-5.018 7.141-9.166 8.506c-14.955 4.925-30.847 16.59-45.958 33.733-.131.148-4.775 5.884-12.887 4.992z" fill="#b25fc5"/><path d="m463.242 235.231c-15.108-17.142-31-28.806-45.957-33.732-4.147-1.366-7.494-4.472-9.166-8.506-1.671-4.035-1.501-8.597.466-12.496 7.092-14.06 10.081-33.545 8.644-56.351-.307-4.872 1.775-9.587 5.582-12.642 3.808-3.055 8.863-4.067 13.551-2.712 37.873 10.938 68.55 34.539 69.837 35.538 4.187 3.25 6.348 8.467 5.685 13.725-.203 1.617-5.21 39.995-24.255 74.506-2.358 4.273-6.647 7.132-11.5 7.664-8.111.891-12.757-4.846-12.887-4.994z" fill="#8130ab"/><path d="m180.498 103.418c-14.071-7.095-33.552-10.083-56.351-8.642-4.875.308-9.589-1.774-12.644-5.581-3.056-3.807-4.068-8.862-2.713-13.552 10.94-37.875 34.537-68.552 35.536-69.839 3.25-4.188 8.468-6.351 13.728-5.685 1.617.204 39.993 5.214 74.508 24.258 4.273 2.358 7.133 6.648 7.664 11.5.532 4.852-1.331 9.659-4.992 12.887-17.141 15.107-28.806 30.999-33.734 45.955-1.367 4.147-4.472 7.493-8.506 9.164-6.711 2.779-12.313-.372-12.496-.465z" fill="#b25fc5"/><path d="m319.009 103.882c-4.033-1.671-7.139-5.017-8.505-9.164-4.929-14.956-16.594-30.847-33.734-45.955-3.662-3.228-5.524-8.035-4.993-12.887.532-4.852 3.391-9.142 7.665-11.5 34.515-19.044 72.89-24.055 74.506-24.258 5.265-.665 10.479 1.498 13.728 5.685.999 1.288 24.596 31.965 35.537 69.839 1.354 4.69.343 9.746-2.713 13.553-3.057 3.807-7.787 5.892-12.645 5.581-22.795-1.439-42.28 1.547-56.352 8.642-.163.082-5.775 3.246-12.494.464z" fill="#8130ab"/><path d="m256 512c-2.563 0-5.126-.656-7.429-1.969-2.168-1.236-48.204-27.846-69.348-68.676-43.822 13.919-95.192.182-97.599-.477-5.111-1.4-9.105-5.394-10.505-10.505-.659-2.407-14.396-53.773-.475-97.597-40.832-21.142-67.441-67.181-68.677-69.349-2.625-4.604-2.625-10.252 0-14.856 1.236-2.168 27.847-48.2 68.677-69.347-13.92-43.823-.185-95.191.475-97.598 1.4-5.111 5.394-9.105 10.505-10.505 2.407-.659 53.777-14.397 97.599-.477 21.144-40.83 67.179-67.44 69.347-68.676 4.605-2.625 10.253-2.624 14.857 0 2.168 1.236 48.204 27.847 69.349 68.676 43.821-13.918 95.191-.182 97.599.477 5.111 1.4 9.104 5.394 10.504 10.505.659 2.407 14.396 53.775.476 97.598 40.83 21.147 67.44 67.179 68.676 69.347 2.625 4.604 2.625 10.252.001 14.856-1.236 2.168-27.845 48.207-68.676 69.349 13.92 43.823.183 95.189-.477 97.597-1.399 5.111-5.393 9.105-10.504 10.505-2.408.659-53.778 14.396-97.599.477-21.145 40.83-67.181 67.44-69.349 68.676-2.301 1.313-4.864 1.969-7.427 1.969z" fill="#8130ab"/><path d="m332.778 441.356c43.82 13.919 95.19.182 97.599-.477 5.111-1.4 9.104-5.394 10.504-10.505.659-2.407 14.396-53.773.477-97.597 40.831-21.142 67.439-67.181 68.676-69.349 2.624-4.604 2.624-10.252-.001-14.856-1.235-2.168-27.846-48.2-68.676-69.347 13.921-43.823.184-95.191-.476-97.598-1.399-5.111-5.393-9.105-10.504-10.505-2.407-.659-53.777-14.396-97.599-.477-21.145-40.83-67.181-67.44-69.349-68.676-2.302-1.312-4.865-1.969-7.429-1.969v512c2.562 0 5.126-.656 7.429-1.968 2.168-1.236 48.204-27.846 69.349-68.676z" fill="#542685"/><path d="m187.249 436.977c-4.598 0-8.985-2.116-11.847-5.802-.328-.422-8.106-10.502-15.483-25.133-7.233-14.346-11.638-28.003-13.169-40.787-12.784-1.531-26.441-5.936-40.788-13.17-14.632-7.378-24.712-15.158-25.135-15.485-4.186-3.25-6.347-8.467-5.684-13.725.067-.53 1.695-13.158 6.825-28.721 5.029-15.258 11.572-28.03 19.529-38.153-7.957-10.123-14.5-22.895-19.529-38.153-5.13-15.563-6.758-28.19-6.825-28.721-.663-5.258 1.499-10.476 5.686-13.726.422-.328 10.502-8.104 25.134-15.481 14.345-7.233 28.004-11.638 40.787-13.17 1.531-12.783 5.936-26.44 13.169-40.787 7.377-14.632 15.155-24.713 15.483-25.135 3.249-4.187 8.461-6.349 13.726-5.686.53.067 13.158 1.694 28.721 6.825 15.259 5.03 28.03 11.573 38.152 19.531 10.122-7.958 22.894-14.501 38.152-19.531 15.563-5.131 28.192-6.758 28.723-6.825 5.257-.664 10.476 1.499 13.726 5.686.327.422 8.104 10.503 15.482 25.135 7.233 14.346 11.638 28.003 13.169 40.786 12.784 1.533 26.44 5.938 40.787 13.171 14.632 7.377 24.712 15.154 25.134 15.481 4.188 3.25 6.349 8.467 5.686 13.726-.066.53-1.694 13.158-6.824 28.72-5.029 15.258-11.573 28.03-19.529 38.153 7.956 10.123 14.5 22.895 19.529 38.153 5.13 15.563 6.758 28.19 6.824 28.72.663 5.258-1.498 10.475-5.684 13.725-.422.327-10.503 8.107-25.135 15.485-14.347 7.234-28.004 11.639-40.788 13.17-1.531 12.784-5.937 26.441-13.169 40.787-7.378 14.632-15.156 24.711-15.483 25.134-3.25 4.186-8.47 6.346-13.725 5.685-.53-.067-13.158-1.694-28.722-6.824-15.259-5.029-28.031-11.571-38.153-19.527-10.123 7.956-22.895 14.499-38.153 19.527-15.563 5.129-28.19 6.757-28.72 6.824-.629.079-1.256.118-1.879.118z" fill="#b25fc5"/><path d="m322.875 436.859c5.255.662 10.475-1.499 13.725-5.685.327-.422 8.105-10.502 15.483-25.134 7.232-14.345 11.638-28.003 13.169-40.787 12.784-1.531 26.441-5.936 40.788-13.17 14.632-7.378 24.713-15.158 25.135-15.485 4.186-3.25 6.347-8.467 5.684-13.725-.066-.53-1.694-13.158-6.824-28.72-5.029-15.258-11.573-28.03-19.529-38.153 7.956-10.123 14.5-22.895 19.529-38.153 5.13-15.563 6.758-28.19 6.824-28.72.663-5.259-1.498-10.477-5.686-13.726-.422-.328-10.502-8.104-25.134-15.481-14.347-7.233-28.003-11.638-40.787-13.171-1.531-12.783-5.936-26.44-13.169-40.786-7.378-14.632-15.155-24.713-15.482-25.135-3.25-4.187-8.469-6.35-13.726-5.686-.53.067-13.159 1.694-28.723 6.825-15.259 5.03-28.03 11.573-38.152 19.531v309.01c10.122 7.956 22.895 14.499 38.153 19.527 15.564 5.13 28.192 6.757 28.722 6.824z" fill="#8130ab"/><ellipse cx="256" cy="256" fill="#e994e2" rx="95.333" ry="95.334" transform="matrix(.924 -.383 .383 .924 -78.48 117.454)"/><path d="m351.333 256c0-52.567-42.767-95.333-95.333-95.333v190.667c52.567 0 95.333-42.767 95.333-95.334z" fill="#b25fc5"/></g></svg>